<svg xmlns="http://www.w3.org/2000/svg" width="25" height="25" viewBox="0 0 25 25"><g><g><g/><g><path fill="#ffc107" d="M22.71 10.457h-.838v-.044h-9.375v4.167h5.887a6.247 6.247 0 0 1-12.137-2.083 6.25 6.25 0 0 1 6.25-6.25c1.593 0 3.042.6 4.146 1.582l2.946-2.946a10.369 10.369 0 0 0-7.092-2.803C6.744 2.08 2.08 6.744 2.08 12.497c0 5.752 4.664 10.416 10.417 10.416 5.752 0 10.416-4.664 10.416-10.416 0-.699-.072-1.38-.202-2.04z"/></g><g><path fill="#ff3d00" d="M3.28 7.648l3.422 2.51a6.247 6.247 0 0 1 5.794-3.911c1.593 0 3.042.6 4.146 1.582l2.946-2.946a10.368 10.368 0 0 0-7.092-2.803A10.41 10.41 0 0 0 3.28 7.648z"/></g><g><path fill="#4caf50" d="M12.503 22.915c2.691 0 5.136-1.03 6.984-2.704l-3.224-2.728a6.203 6.203 0 0 1-3.76 1.266 6.247 6.247 0 0 1-5.876-4.139L3.23 17.227c1.724 3.374 5.225 5.688 9.273 5.688z"/></g><g><path fill="#1976d2" d="M22.714 10.463h-.839v-.043H12.5v4.167h5.887a6.27 6.27 0 0 1-2.129 2.901h.002l3.224 2.727c-.228.208 3.433-2.503 3.433-7.712 0-.698-.072-1.38-.203-2.04z"/></g></g></g></svg>