<svg xmlns="http://www.w3.org/2000/svg">
    <defs>
        <linearGradient
                id="logo_linear"
                x1="30.0415"
                y1="-5.95974"
                x2="-9.63647"
                y2="27.3866"
                gradientUnits="userSpaceOnUse"
        >
            <stop stop-color="#FA9A42"/>
            <stop offset="0.973958" stop-color="#FF6C6C"/>
        </linearGradient>

        <linearGradient
                id="play-linear"
                x1="31.5705"
                y1="-5.95974"
                x2="-8.53692"
                y2="30.604"
                gradientUnits="userSpaceOnUse"
        >
            <stop stop-color="#FA9A42"/>
            <stop offset="0.973958" stop-color="#FF6C6C"/>
        </linearGradient>
    </defs>

    <symbol id="icon-bell" viewBox="0 0 16 20">
        <path
                d="M8 20C9.1 20 10 19.1 10 18H6C6 19.1 6.89 20 8 20ZM14 14V9C14 5.93 12.36 3.36 9.5 2.68V2C9.5 1.17 8.83 0.5 8 0.5C7.17 0.5 6.5 1.17 6.5 2V2.68C3.63 3.36 2 5.92 2 9V14L0 16V17H16V16L14 14Z"
        ></path>
    </symbol>

    <symbol id="icon-elipsis" viewBox="0 0 4 16">
        <path
                d="M2 4C3.1 4 4 3.1 4 2C4 0.9 3.1 0 2 0C0.9 0 0 0.9 0 2C0 3.1 0.9 4 2 4ZM2 6C0.9 6 0 6.9 0 8C0 9.1 0.9 10 2 10C3.1 10 4 9.1 4 8C4 6.9 3.1 6 2 6ZM2 12C0.9 12 0 12.9 0 14C0 15.1 0.9 16 2 16C3.1 16 4 15.1 4 14C4 12.9 3.1 12 2 12Z"
        />
    </symbol>

    <symbol id="icon-logo" viewBox="0 0 24 24">
        <path
                d="M16.7062 8.6123L13.7499 12.2654C13.8304 12.4742 13.875 12.7007 13.875 12.9375C13.875 13.9714 13.0339 14.8125 12 14.8125C10.9661 14.8125 10.125 13.9714 10.125 12.9375C10.125 11.9036 10.9661 11.0625 12 11.0625C12.0996 11.0625 12.1973 11.0705 12.2927 11.0855L15.2487 7.43278C15.5745 7.03027 16.1648 6.96816 16.5672 7.2938C16.9697 7.61944 17.0319 8.20978 16.7062 8.6123ZM19.8224 5.11514C17.9555 3.2483 15.5388 2.13159 12.9375 1.9147V0.9375C12.9375 0.419719 12.5178 0 12 0C11.4822 0 11.0625 0.419719 11.0625 0.9375V1.9147C8.46122 2.13159 6.04448 3.24825 4.17764 5.11509C2.08819 7.20455 0.9375 9.98259 0.9375 12.9375C0.9375 15.8924 2.08819 18.6705 4.17764 20.7599C6.26705 22.8493 9.04509 24 12 24C14.3791 24 16.6462 23.2561 18.5561 21.8487C18.973 21.5416 19.0619 20.9547 18.7547 20.5379C18.4476 20.121 17.8606 20.0321 17.4438 20.3392C15.8584 21.5075 13.976 22.125 12 22.125C6.93398 22.125 2.8125 18.0035 2.8125 12.9375C2.8125 7.87148 6.93398 3.75 12 3.75C17.066 3.75 21.1875 7.87148 21.1875 12.9375C21.1875 14.4848 20.7959 16.0143 20.055 17.3604C19.8053 17.814 19.9706 18.3841 20.4242 18.6338C20.8777 18.8834 21.4479 18.7182 21.6976 18.2645C22.5905 16.6421 23.0625 14.8001 23.0625 12.9375C23.0625 9.98259 21.9118 7.20455 19.8224 5.11514ZM18.3675 2.29078L20.9131 4.41361C21.0884 4.55981 21.3013 4.63116 21.513 4.63116C21.7815 4.63116 22.0481 4.51641 22.2335 4.29408C22.5651 3.89644 22.5116 3.30525 22.1139 2.97366L19.5683 0.850781C19.1707 0.519188 18.5795 0.572672 18.2479 0.970359C17.9163 1.368 17.9698 1.95914 18.3675 2.29078ZM2.48705 4.63111C2.69873 4.63111 2.91169 4.55977 3.08695 4.41356L5.6325 2.29078C6.03014 1.95919 6.08372 1.368 5.75212 0.970359C5.42058 0.572766 4.82934 0.519188 4.4317 0.850781L1.88611 2.97361C1.48847 3.3052 1.43489 3.89639 1.76648 4.29403C1.95197 4.51636 2.2185 4.63111 2.48705 4.63111Z"
                fill="#fa9a42"
        />
    </symbol>

    <symbol id="icon-play" viewBox="0 0 24 24">
        <path
                d="M12 0C5.376 0 0 5.376 0 12C0 18.624 5.376 24 12 24C18.624 24 24 18.624 24 12C24 5.376 18.624 0 12 0Z"
                fill="url(#play-linear)"
        ></path>
        <path
                d="M9 15.9999C9 16.824 9.94079 17.2944 10.6 16.7999L15.933 12.8C16.4663 12.4 16.4663 11.6 15.933 11.2L10.6 7.20008C9.94079 6.70563 9 7.17601 9 8.00006V15.9999Z"
                fill="white"
        ></path>
    </symbol>

    <symbol id="icon-stop" viewBox="0 0 24 24">
        <path
                d="M12 0C5.376 0 0 5.376 0 12C0 18.624 5.376 24 12 24C18.624 24 24 18.624 24 12C24 5.376 18.624 0 12 0Z"
                fill="url(#play-linear)"
        ></path>
        <path
                d="M8 15C8 15.5523 8.44772 16 9 16H13.7143V8H9C8.44772 8 8 8.44772 8 9V15ZM13.7143 16H15C15.5523 16 16 15.5523 16 15V9C16 8.44772 15.5523 8 15 8H13.7143V16Z"
                fill="none"
        ></path>
    </symbol>

    <symbol xmlns="http://www.w3.org/2000/svg" viewBox="0 0 201 49" id="brand-name">
        <title>background</title>
        <path fill="none" d="M-1-1h203v51H-1z"></path>
        <title>Layer 1</title><text font-weight="bold" stroke="null" transform="matrix(1 0 0 .92593 0 2.7)" font-family="&#x27;Trebuchet MS&#x27;, Gadget, sans-serif" font-size="24" y="42" x="3" fill-opacity="null" stroke-opacity="null" stroke-width="0">GreenwichApp</text>
        <g stroke="null">
            <path d="M195.703 15.995h-3.273c-.244-2.719-1.565-5.194-3.616-7.142l2.319-1.9c.435-.358.435-.936 0-1.293-.436-.357-1.141-.357-1.577 0l-2.319 1.901c-2.377-1.68-5.397-2.763-8.712-2.963V1.914c0-.505-.5-.914-1.116-.914s-1.115.41-1.115.914v2.684c-3.316.2-6.336 1.282-8.712 2.963l-2.32-1.901c-.436-.357-1.141-.357-1.577 0-.436.357-.436.935 0 1.292l2.32 1.902c-2.05 1.947-3.371 4.423-3.616 7.141h-3.274c-.616 0-1.115.41-1.115.914s.5.914 1.115.914h3.274c.244 2.718 1.565 5.193 3.616 7.141l-2.32 1.902c-.436.356-.436.935 0 1.292.218.179.503.268.788.268s.57-.09.789-.268l2.32-1.902c2.376 1.681 5.396 2.764 8.712 2.964v2.684c0 .505.5.914 1.115.914s1.116-.41 1.116-.914V29.22c3.316-.2 6.336-1.282 8.712-2.963l2.32 1.901c.217.179.502.268.788.268s.57-.09.788-.268c.435-.357.435-.936 0-1.292l-2.32-1.901c2.052-1.949 3.372-4.424 3.617-7.142h3.273c.616 0 1.115-.41 1.115-.914s-.499-.914-1.115-.914zM177.409 27.43c-7.077 0-12.835-4.72-12.835-10.521s5.758-10.521 12.835-10.521c7.078 0 12.836 4.72 12.836 10.52S184.487 27.43 177.41 27.43z"></path>
            <path d="M177.41 7.232c-6.51 0-11.806 4.341-11.806 9.677s5.296 9.677 11.805 9.677 11.806-4.341 11.806-9.677-5.296-9.677-11.806-9.677zm1.115 1.883c1.806.173 3.459.758 4.816 1.64l-3.915 3.208a4.726 4.726 0 00-.901-.283V9.115zm-2.23 0v4.6a4.61 4.61 0 00-.845.296l-3.973-3.257c1.358-.88 3.011-1.466 4.817-1.639zm-6.394 2.932l3.972 3.256a3.13 3.13 0 00-.362.692h-5.61c.21-1.48.925-2.836 2-3.948zm-2 5.776h5.568c.082.26.196.508.346.74L169.9 21.77c-1.075-1.112-1.79-2.468-2-3.948zm8.393 6.88c-1.806-.173-3.46-.759-4.817-1.64l3.871-3.173c.294.146.61.265.946.348v4.465zm-.73-7.727c0-.87.864-1.58 1.927-1.58s1.927.71 1.927 1.58-.864 1.58-1.927 1.58-1.927-.71-1.927-1.58zm2.96 7.727v-4.43a4.7 4.7 0 001.008-.332l3.81 3.123c-1.358.88-3.011 1.466-4.817 1.639zm6.394-2.932l-3.81-3.122c.178-.257.314-.534.405-.826h5.405c-.21 1.48-.925 2.836-2 3.948zm-3.447-5.776a3.135 3.135 0 00-.425-.775l3.872-3.174c1.075 1.113 1.789 2.469 2 3.949h-5.447z"></path>
        </g>
    </symbol>

    <symbol xmlns="http://www.w3.org/2000/svg" viewBox="0 0 25 25" id="google">
        <path fill="#ffc107" d="M22.71 10.457h-.838v-.044h-9.375v4.167h5.887a6.247 6.247 0 01-12.137-2.083 6.25 6.25 0 016.25-6.25c1.593 0 3.042.6 4.146 1.582l2.946-2.946a10.369 10.369 0 00-7.092-2.803C6.744 2.08 2.08 6.744 2.08 12.497c0 5.752 4.664 10.416 10.417 10.416 5.752 0 10.416-4.664 10.416-10.416 0-.699-.072-1.38-.202-2.04z"></path>
        <path fill="#ff3d00" d="M3.28 7.648l3.422 2.51a6.247 6.247 0 015.794-3.911c1.593 0 3.042.6 4.146 1.582l2.946-2.946a10.368 10.368 0 00-7.092-2.803A10.41 10.41 0 003.28 7.648z"></path>
        <path fill="#4caf50" d="M12.503 22.915c2.691 0 5.136-1.03 6.984-2.704l-3.224-2.728a6.203 6.203 0 01-3.76 1.266 6.247 6.247 0 01-5.876-4.139L3.23 17.227c1.724 3.374 5.225 5.688 9.273 5.688z"></path>
        <path fill="#1976d2" d="M22.714 10.463h-.839v-.043H12.5v4.167h5.887a6.27 6.27 0 01-2.129 2.901h.002l3.224 2.727c-.228.208 3.433-2.503 3.433-7.712 0-.698-.072-1.38-.203-2.04z"></path>
    </symbol>
</svg>
