<svg width="24" height="24" viewBox="0 0 24 24" fill="none" xmlns="http://www.w3.org/2000/svg">
<path d="M16.7062 8.6123L13.7499 12.2654C13.8304 12.4742 13.875 12.7007 13.875 12.9375C13.875 13.9714 13.0339 14.8125 12 14.8125C10.9661 14.8125 10.125 13.9714 10.125 12.9375C10.125 11.9036 10.9661 11.0625 12 11.0625C12.0996 11.0625 12.1973 11.0705 12.2927 11.0855L15.2487 7.43278C15.5745 7.03027 16.1648 6.96816 16.5672 7.2938C16.9697 7.61944 17.0319 8.20978 16.7062 8.6123ZM19.8224 5.11514C17.9555 3.2483 15.5388 2.13159 12.9375 1.9147V0.9375C12.9375 0.419719 12.5178 0 12 0C11.4822 0 11.0625 0.419719 11.0625 0.9375V1.9147C8.46122 2.13159 6.04448 3.24825 4.17764 5.11509C2.08819 7.20455 0.9375 9.98259 0.9375 12.9375C0.9375 15.8924 2.08819 18.6705 4.17764 20.7599C6.26705 22.8493 9.04509 24 12 24C14.3791 24 16.6462 23.2561 18.5561 21.8487C18.973 21.5416 19.0619 20.9547 18.7547 20.5379C18.4476 20.121 17.8606 20.0321 17.4438 20.3392C15.8584 21.5075 13.976 22.125 12 22.125C6.93398 22.125 2.8125 18.0035 2.8125 12.9375C2.8125 7.87148 6.93398 3.75 12 3.75C17.066 3.75 21.1875 7.87148 21.1875 12.9375C21.1875 14.4848 20.7959 16.0143 20.055 17.3604C19.8053 17.814 19.9706 18.3841 20.4242 18.6338C20.8777 18.8834 21.4479 18.7182 21.6976 18.2645C22.5905 16.6421 23.0625 14.8001 23.0625 12.9375C23.0625 9.98259 21.9118 7.20455 19.8224 5.11514ZM18.3675 2.29078L20.9131 4.41361C21.0884 4.55981 21.3013 4.63116 21.513 4.63116C21.7815 4.63116 22.0481 4.51641 22.2335 4.29408C22.5651 3.89644 22.5116 3.30525 22.1139 2.97366L19.5683 0.850781C19.1707 0.519188 18.5795 0.572672 18.2479 0.970359C17.9163 1.368 17.9698 1.95914 18.3675 2.29078ZM2.48705 4.63111C2.69873 4.63111 2.91169 4.55977 3.08695 4.41356L5.6325 2.29078C6.03014 1.95919 6.08372 1.368 5.75212 0.970359C5.42058 0.572766 4.82934 0.519188 4.4317 0.850781L1.88611 2.97361C1.48847 3.3052 1.43489 3.89639 1.76648 4.29403C1.95197 4.51636 2.2185 4.63111 2.48705 4.63111Z" fill="url(#paint0_linear)"/>
<defs>
<linearGradient id="paint0_linear" x1="30.0415" y1="-5.95974" x2="-9.63647" y2="27.3866" gradientUnits="userSpaceOnUse">
<stop stop-color="#FA9A42"/>
<stop offset="0.973958" stop-color="#FF6C6C"/>
</linearGradient>
</defs>
</svg>
